<?xml version="1.0" encoding="UTF-8"?>
<svg width="17px" height="17px" viewBox="0 0 17 17" version="1.1" xmlns="http://www.w3.org/2000/svg" xmlns:xlink="http://www.w3.org/1999/xlink">
    <!-- Generator: Sketch 50.2 (55047) - http://www.bohemiancoding.com/sketch -->
    <title>Combined shape 846</title>
    <desc>Created with Sketch.</desc>
    <defs></defs>
    <g id="Symbols" stroke="none" stroke-width="1" fill="none" fill-rule="evenodd">
        <g id="loupe-dark" transform="translate(-1.000000, -1.000000)" fill="#333333">
            <path d="M13.15465,11.747035 L17.91719,16.515237 L16.493691,17.937425 L11.721328,13.177507 L11.721328,12.422105 L11.458102,12.160494 C10.372936,13.089613 8.96553,13.654179 7.423851,13.654179 C3.996137,13.654179 1.218071,10.879248 1.218071,7.455809 C1.218071,4.032218 3.996137,1.256717 7.423851,1.256717 C10.851451,1.256717 13.630049,4.032218 13.630049,7.455809 C13.630049,8.995759 13.064476,10.401569 12.133438,11.485709 L12.396607,11.747035 L13.15465,11.747035 Z M7.423851,11.747035 C9.796856,11.747035 11.720378,9.825698 11.720378,7.455809 C11.720378,5.085483 9.796856,3.164298 7.423851,3.164298 C5.051112,3.164298 3.127172,5.085483 3.127172,7.455809 C3.127172,9.825698 5.051112,11.747035 7.423851,11.747035 Z" id="Combined-shape-846"></path>
        </g>
    </g>
</svg>